Coordinates
version=1
nRows=21
nColumns=12
inDegrees=yes

Units are S.I. units (second, meters, Newtons, ...)
Angles are in degrees

endheader
time	SC_y	SC_z	SC_x	AC_y	AC_z	AC_x	GH_y	GH_z	GH_yy	EL_x	PS_y
       0.0              -40.25          2.916          32.19          46.22         -14.46         -5.475          12.32          35.11          77.73          54.31          91.84
  0.006214              -40.25           2.92           32.2          46.22         -14.46         -5.472          12.33           35.1          77.73           54.3          91.83
   0.01243              -40.25          2.925           32.2          46.22         -14.46         -5.468          12.35          35.09          77.73           54.3          91.81
   0.01864              -40.25          2.931          32.21          46.21         -14.45         -5.464          12.36          35.08          77.73           54.3           91.8
   0.02486              -40.24          2.936          32.21          46.21         -14.45         -5.459          12.38          35.07          77.73           54.3          91.78
   0.03107              -40.24          2.942          32.21          46.21         -14.44         -5.455           12.4          35.06          77.73          54.29          91.77
   0.03728              -40.24          2.949          32.22          46.21         -14.44          -5.45          12.41          35.05          77.73          54.29          91.75
    0.0435              -40.24          2.956          32.22           46.2         -14.44         -5.444          12.43          35.04          77.73          54.29          91.73
   0.04971              -40.24          2.963          32.23           46.2         -14.43         -5.438          12.46          35.03          77.73          54.29          91.72
   0.05593              -40.24          2.971          32.24          46.19         -14.43         -5.432          12.48          35.01          77.73          54.28          91.69
   0.06214              -40.23           2.98          32.24          46.19         -14.42         -5.425           12.5           35.0          77.73          54.28          91.67
   0.06835              -40.23          2.989          32.25          46.19         -14.41         -5.418          12.53          34.98          77.72          54.27          91.65
   0.07457              -40.23          2.999          32.26          46.18         -14.41         -5.411          12.56          34.97          77.72          54.27          91.62
   0.08078              -40.23          3.009          32.27          46.18          -14.4         -5.402          12.59          34.95          77.72          54.27           91.6
     0.087              -40.22          3.021          32.27          46.17         -14.39         -5.393          12.62          34.93          77.72          54.26          91.57
   0.09321              -40.22          3.033          32.28          46.16         -14.39         -5.383          12.66          34.91          77.72          54.26          91.53
   0.09942              -40.21          3.047          32.29          46.16         -14.38         -5.373           12.7          34.89          77.72          54.25           91.5
    0.1056              -40.21          3.062          32.31          46.15         -14.37         -5.361          12.74          34.86          77.72          54.24          91.46
    0.1119              -40.21          3.078          32.32          46.14         -14.36         -5.349          12.79          34.84          77.72          54.24          91.42
    0.1181               -40.2          3.096          32.33          46.13         -14.35         -5.335          12.84          34.81          77.72          54.23          91.37
    0.1243               -40.2          3.115          32.35          46.12         -14.33          -5.32           12.9          34.77          77.71          54.22          91.32
